<?xml version="1.0" standalone="no"?>
<!DOCTYPE svg PUBLIC "-//W3C//DTD SVG 20010904//EN"
 "http://www.w3.org/TR/2001/REC-SVG-20010904/DTD/svg10.dtd">
<svg version="1.0" xmlns="http://www.w3.org/2000/svg"
 width="367.000000pt" height="367.000000pt" viewBox="0 0 367.000000 367.000000"
 preserveAspectRatio="xMidYMid meet">
<metadata>
Created by potrace 1.11, written by Peter Selinger 2001-2013
</metadata>
<g transform="translate(0.000000,367.000000) scale(0.100000,-0.100000)"
fill="#000000" stroke="none">
<path d="M10 3532 c0 -7 79 -111 115 -151 38 -41 68 -57 126 -66 l46 -7 6 -61
c4 -34 9 -73 12 -87 3 -14 8 -39 11 -56 l6 -31 196 1 197 0 0 -114 0 -115
-138 0 c-155 1 -144 9 -124 -90 l13 -60 1308 0 1308 0 19 60 c30 96 37 91
-108 90 -71 -1 -133 0 -140 3 -13 4 -16 201 -3 217 5 6 80 10 193 9 l185 0 20
70 c11 39 23 91 27 116 l7 46 59 11 c47 9 81 26 157 77 114 78 147 104 139
112 -3 3 -43 1 -89 -5 -46 -5 -110 -13 -143 -16 -33 -4 -75 -8 -94 -10 -19 -2
-71 -7 -115 -10 -45 -4 -92 -9 -106 -12 -39 -9 -2291 -11 -2420 -2 -182 12
-456 46 -622 78 -27 4 -48 6 -48 3z m1706 -465 c5 -3 9 -54 9 -114 l0 -108
-390 0 -390 0 -3 104 c-1 58 -1 109 1 115 5 12 755 14 773 3z m924 -107 l0
-115 -347 0 -348 0 -3 115 -3 115 351 0 350 0 0 -115z"/>
<path d="M829 2603 c-34 -7 -78 -21 -98 -31 -76 -39 -104 -129 -59 -188 30
-39 27 -37 153 -90 61 -26 128 -55 150 -64 23 -10 53 -22 67 -25 39 -10 78
-50 78 -79 0 -49 -96 -94 -190 -91 -135 5 -226 53 -244 128 -3 15 -11 27 -17
27 -19 0 -47 -79 -40 -113 6 -28 13 -34 56 -48 28 -9 70 -20 95 -23 55 -8 234
-8 275 -1 160 29 247 110 222 207 -11 46 -48 75 -142 112 -38 15 -83 33 -100
40 -16 7 -66 28 -110 46 -94 39 -115 55 -115 86 0 81 246 108 330 37 17 -14
30 -31 30 -39 0 -8 5 -14 10 -14 6 0 10 9 10 20 0 11 0 21 0 23 1 1 5 19 9 40
5 20 6 37 2 38 -8 1 -159 9 -244 12 -37 1 -95 -3 -128 -10z"/>
<path d="M1697 2602 c-216 -33 -339 -159 -324 -332 10 -128 91 -215 242 -263
69 -22 116 -28 215 -28 147 1 219 23 293 90 26 24 27 27 21 100 -3 42 -7 77
-8 79 -2 1 -13 -26 -26 -60 -32 -88 -88 -142 -167 -159 -211 -44 -357 40 -381
220 -15 107 22 212 92 266 94 72 269 78 367 12 30 -20 42 -35 86 -103 10 -16
12 -5 11 58 0 46 -5 81 -12 86 -6 5 -32 14 -57 20 -109 27 -237 32 -352 14z"/>
<path d="M2190 2607 c0 -4 4 -6 10 -2 5 3 18 -3 30 -15 19 -19 20 -32 20 -288
0 -288 -3 -305 -53 -315 -12 -2 39 -4 113 -5 74 0 124 3 110 7 -41 11 -50 44
-47 171 l2 115 127 2 c82 1 130 -3 134 -9 10 -16 8 -232 -2 -251 -5 -9 -20
-20 -34 -26 -18 -7 9 -10 105 -10 97 1 123 3 103 10 -15 6 -30 19 -33 30 -4
11 -7 139 -7 285 0 268 3 294 38 294 7 0 15 3 18 8 2 4 -49 7 -115 7 -65 0
-119 -3 -119 -7 0 -5 6 -8 14 -8 30 0 38 -29 38 -137 0 -59 -1 -117 -1 -128
-1 -19 -7 -20 -128 -19 -71 1 -132 2 -136 3 -4 0 -7 55 -6 122 2 100 5 124 21
144 10 13 18 25 18 27 0 2 -49 3 -110 3 -60 0 -110 -3 -110 -8z"/>
<path d="M457 1888 c-7 -4 0 -8 16 -8 35 0 83 -24 91 -45 3 -9 6 -156 6 -325
0 -305 0 -309 -22 -330 -12 -11 -27 -21 -32 -21 -6 -1 -21 -3 -34 -4 -32 -3
-40 -15 -11 -16 29 -1 416 -1 443 0 25 1 16 10 -15 16 -51 10 -78 27 -83 53
-3 15 -5 163 -5 330 l1 302 41 1 c124 3 191 -14 230 -59 27 -30 38 -90 26
-136 -21 -79 -96 -126 -201 -126 -27 0 -48 -4 -48 -10 0 -5 7 -10 15 -10 36 0
68 -29 128 -119 83 -122 123 -163 189 -194 73 -35 139 -45 302 -46 131 -2 175
6 89 16 -59 6 -118 47 -248 172 -67 64 -141 126 -165 138 -39 20 -42 23 -19
23 110 0 222 103 221 201 -2 106 -99 176 -273 195 -81 9 -629 10 -642 2z"/>
<path d="M2644 1865 c21 -7 43 -20 47 -27 13 -20 11 -526 -2 -573 -12 -42 -78
-115 -104 -115 -8 0 -15 -5 -15 -10 0 -7 23 -9 63 -5 86 7 179 53 215 107 l26
41 1 272 c0 297 0 297 59 314 21 6 -24 9 -149 10 -165 0 -177 -1 -141 -14z"/>
<path d="M1845 1855 c22 -8 45 -22 52 -32 10 -13 13 -92 13 -324 0 -342 1
-338 -70 -358 -26 -7 17 -9 163 -10 132 -1 197 2 197 10 0 5 -5 7 -11 4 -15
-10 -66 14 -75 33 -4 10 -8 154 -8 321 -1 338 -2 333 65 357 29 11 4 13 -166
13 -185 0 -197 -1 -160 -14z"/>
<path d="M460 1053 c0 -3 10 -19 23 -36 21 -31 22 -42 25 -268 l3 -237 -33
-12 c-18 -6 -86 -14 -150 -17 -91 -4 -118 -9 -118 -19 0 -12 93 -14 575 -12
373 2 576 7 578 13 1 6 -31 11 -78 12 -94 3 -203 21 -212 36 -3 6 -7 79 -8
164 l-1 154 25 -6 c14 -3 35 -7 46 -9 43 -8 752 -157 790 -166 22 -5 54 -11
70 -14 17 -3 41 -8 55 -11 14 -3 36 -8 50 -11 14 -2 77 -16 140 -29 359 -76
558 -117 585 -122 17 -2 53 -10 80 -16 28 -7 60 -11 72 -9 l22 3 -25 36 c-29
43 -26 13 -28 280 l-1 222 25 10 c40 16 97 24 188 25 57 1 87 6 90 14 2 7 0
13 -5 13 -4 1 -266 2 -580 3 -513 1 -573 0 -573 -14 0 -13 13 -16 68 -15 79 1
188 -12 214 -26 16 -9 18 -25 18 -164 0 -117 -3 -155 -12 -155 -7 0 -65 11
-128 24 -63 14 -126 27 -140 30 -24 4 -516 107 -935 195 -105 22 -202 42 -215
45 -14 2 -113 23 -220 46 -183 39 -280 54 -280 43z"/>
</g>
</svg>
