<?xml version="1.0" standalone="no"?>
<!DOCTYPE svg PUBLIC "-//W3C//DTD SVG 20010904//EN"
 "http://www.w3.org/TR/2001/REC-SVG-20010904/DTD/svg10.dtd">
<svg version="1.0" xmlns="http://www.w3.org/2000/svg"
 width="352.000000pt" height="352.000000pt" viewBox="0 0 352.000000 352.000000"
 preserveAspectRatio="xMidYMid meet">
<metadata>
Created by potrace 1.11, written by Peter Selinger 2001-2013
</metadata>
<g transform="translate(0.000000,352.000000) scale(0.100000,-0.100000)"
fill="#000000" stroke="none">
<path d="M148 3513 c-9 -19 -2 -168 7 -165 6 1 10 19 11 40 2 63 4 72 15 72 6
0 9 -6 6 -14 -3 -8 -3 -17 1 -20 10 -10 11 -37 1 -30 -5 3 -9 -7 -9 -21 0 -15
4 -24 10 -20 6 4 7 11 4 17 -5 7 -2 8 5 4 9 -6 9 -12 -3 -25 -17 -19 -21 -32
-8 -30 17 3 26 -2 15 -9 -13 -8 -20 -92 -9 -110 4 -7 2 -12 -5 -12 -8 0 -8 -4
-2 -12 12 -16 13 -49 1 -42 -4 3 -8 -3 -9 -13 -4 -97 -8 -144 -15 -154 -4 -7
-3 -10 4 -5 7 4 9 -8 5 -41 -2 -27 -7 -50 -9 -52 -2 -2 1 -10 7 -18 6 -7 7
-13 2 -13 -11 0 -11 2 -16 -125 -2 -55 -2 -104 2 -110 9 -17 9 -49 -1 -69 -6
-11 -6 -16 0 -12 5 3 7 -6 4 -22 -3 -15 -5 -81 -6 -147 -1 -66 -5 -126 -10
-134 -6 -10 -5 -12 3 -7 15 10 11 -45 -4 -56 -6 -5 -5 -8 3 -8 8 0 10 -5 5
-12 -7 -13 -12 -1660 -4 -1653 5 6 8 51 16 225 3 85 8 175 10 200 2 25 7 106
10 180 4 74 8 167 10 205 2 39 7 122 10 185 3 63 8 149 10 190 3 41 7 129 10
195 3 66 8 152 10 190 2 39 7 122 10 185 3 63 7 149 10 190 7 125 14 259 20
385 3 66 7 147 10 180 2 33 6 121 10 195 4 74 9 138 11 141 2 4 25 5 51 4 27
-2 219 -6 428 -10 493 -7 863 -14 1155 -20 129 -3 421 -7 648 -10 227 -3 420
-8 430 -12 14 -4 13 -2 -3 10 -20 16 -19 16 7 17 15 0 30 5 33 10 3 6 15 10
26 10 13 0 19 7 19 21 0 11 -3 19 -7 17 -5 -3 -23 -10 -40 -17 -18 -7 -30 -17
-27 -22 3 -5 -6 -9 -20 -9 -14 0 -28 -4 -31 -10 -8 -13 -42 -13 -47 1 -2 5
-19 12 -38 15 -53 9 -49 14 11 14 30 0 49 4 42 8 -18 12 -173 15 -186 4 -7 -6
-37 -12 -67 -15 -30 -2 -45 -2 -32 0 12 2 22 9 22 15 0 6 13 8 30 6 17 -3 30
-2 30 2 0 4 22 7 49 9 28 1 59 4 70 6 11 2 60 7 108 11 48 4 96 8 105 9 33 3
31 15 -3 16 -32 0 -32 1 -11 11 12 6 22 15 22 20 0 5 6 6 13 2 9 -5 9 -4 1 5
-9 10 -17 10 -33 2 -16 -9 -21 -9 -21 1 0 10 -2 10 -9 -1 -7 -10 -9 -11 -13
-1 -4 12 -89 16 -143 6 -11 -2 -45 -7 -75 -11 -61 -9 -85 -13 -85 -15 0 -1
-81 -3 -180 -4 -99 -2 -175 -2 -170 0 6 1 22 5 36 8 23 5 38 36 17 36 -5 0 -7
4 -3 9 3 6 -11 13 -32 17 l-38 8 30 6 c17 4 -470 7 -1081 7 -1055 0 -1111 -1
-1107 -17 3 -10 -1 -21 -8 -25 -7 -5 -10 -4 -6 3 4 5 4 17 1 26 -6 17 -20 21
-26 9z m35 -753 c-3 -12 -8 -19 -11 -16 -5 6 5 36 12 36 2 0 2 -9 -1 -20z m7
-40 c0 -5 -5 -10 -11 -10 -5 0 -7 5 -4 10 3 6 8 10 11 10 2 0 4 -4 4 -10z m-5
-60 c-3 -5 -11 -10 -16 -10 -6 0 -7 5 -4 10 3 6 11 10 16 10 6 0 7 -4 4 -10z
m-7 -45 c-3 -3 -9 2 -12 12 -6 14 -5 15 5 6 7 -7 10 -15 7 -18z"/>
<path d="M2773 3507 c-2 -4 -16 -6 -31 -5 -40 2 -72 -11 -72 -31 0 -14 8 -17
43 -15 54 3 246 19 267 23 3 1 6 10 7 21 1 15 -4 20 -22 20 -13 0 -26 -4 -29
-9 -4 -6 -19 -6 -39 0 -37 10 -116 8 -124 -4z m-63 -31 c0 -11 -19 -15 -25 -6
-3 5 1 10 9 10 9 0 16 -2 16 -4z"/>
<path d="M3076 3292 c-3 -5 1 -9 9 -9 8 0 12 4 9 9 -3 4 -7 8 -9 8 -2 0 -6 -4
-9 -8z"/>
<path d="M3335 3140 c-3 -5 -1 -10 4 -10 6 0 11 5 11 10 0 6 -2 10 -4 10 -3 0
-8 -4 -11 -10z"/>
<path d="M3334 3066 c1 -8 5 -18 8 -22 4 -3 5 1 4 10 -1 8 -5 18 -8 22 -4 3
-5 -1 -4 -10z"/>
<path d="M2920 3033 c-58 -12 -124 -24 -148 -28 -24 -3 -64 -10 -90 -14 -26
-5 -69 -12 -97 -16 -96 -12 -200 -33 -167 -34 17 -1 32 -6 32 -13 0 -6 -3 -8
-7 -5 -3 4 -12 2 -18 -3 -14 -12 -98 -20 -237 -24 -56 -1 -93 2 -85 6 7 6 -3
8 -28 7 -53 -2 -67 -1 -62 9 3 4 -18 6 -46 5 -29 -1 -119 -2 -202 -2 -134 -2
-148 -3 -131 -16 19 -15 19 -15 -5 -16 -13 -1 -44 -2 -69 -3 -25 -2 -49 0 -55
4 -5 4 -71 8 -145 7 -74 0 -151 3 -170 6 -79 15 -135 33 -132 45 1 7 -8 12
-20 13 -13 0 -32 2 -43 4 -78 14 -249 38 -290 41 l-50 3 50 -14 50 -14 -75 5
c-41 4 -84 8 -95 10 -45 9 -135 16 -135 11 0 -12 54 -154 71 -189 23 -46 52
-62 152 -82 73 -15 93 -18 212 -32 28 -3 61 -7 75 -9 14 -2 59 -6 100 -10 41
-3 95 -8 120 -10 108 -10 480 -35 575 -38 15 0 242 13 305 18 30 2 93 7 140
10 47 3 112 8 145 12 33 3 73 5 88 4 20 -1 26 2 21 10 -5 9 -2 10 12 5 27 -10
140 4 161 20 16 12 14 13 -12 3 -19 -6 -26 -7 -20 0 12 12 135 41 284 68 l104
18 27 60 c33 73 63 172 55 185 -7 11 -19 10 -145 -17z m-343 -319 c-3 -3 -12
-4 -19 -1 -8 3 -5 6 6 6 11 1 17 -2 13 -5z m-40 -10 c-3 -3 -12 -4 -19 -1 -8
3 -5 6 6 6 11 1 17 -2 13 -5z"/>
<path d="M3329 2928 c0 -57 -2 -123 -4 -148 -1 -25 -6 -119 -9 -210 -4 -91 -9
-203 -11 -250 -4 -81 -13 -294 -20 -478 -4 -107 -15 -369 -20 -477 -2 -44 -7
-161 -10 -260 -4 -99 -8 -207 -10 -240 -2 -33 -6 -141 -10 -240 -4 -99 -8
-207 -10 -240 -2 -33 -4 -83 -4 -112 l-1 -52 -577 4 c-1493 12 -2254 14 -2248
5 3 -6 34 -10 68 -11 l62 -1 -62 -12 c-73 -14 -99 -30 -33 -20 25 4 62 8 82 8
38 1 49 10 26 19 -7 3 21 4 62 2 41 -2 88 -10 104 -19 l29 -15 -34 -4 c-28 -3
-25 -4 14 -5 26 -1 47 -6 47 -11 0 -5 30 -9 68 -10 87 -1 173 -11 192 -22 9
-5 -28 -9 -93 -9 -60 0 -106 4 -103 8 7 12 -52 8 -65 -5 -15 -15 24 -22 149
-25 57 -1 105 -5 108 -9 2 -3 -8 -5 -21 -3 -14 1 -25 -2 -25 -8 0 -5 15 -8 33
-6 20 2 31 8 29 16 -1 8 2 11 8 7 6 -3 8 -10 5 -14 -3 -6 139 -17 302 -24 7 0
10 -4 7 -9 -3 -4 2 -8 10 -8 10 0 13 -6 10 -17 -5 -15 -4 -15 4 -4 13 18 42
23 39 8 -1 -7 3 -11 8 -10 6 1 262 4 570 8 308 4 695 8 860 10 165 2 351 4
413 4 l113 1 -4 178 c-2 97 -8 186 -12 196 -6 13 -5 17 3 12 8 -4 8 3 2 25 -5
17 -9 34 -8 38 1 3 -2 14 -7 25 -5 12 -3 21 6 27 11 7 11 9 -3 9 -15 0 -16 7
-12 40 4 27 1 46 -8 57 -7 9 -8 14 -2 10 11 -7 11 31 0 116 -2 15 0 29 4 32 4
2 6 23 4 45 -2 28 2 43 12 47 8 3 14 9 14 15 0 5 -4 7 -9 4 -10 -7 -26 52 -17
61 3 4 6 -3 6 -15 0 -11 4 -23 9 -27 6 -3 9 69 8 185 -1 104 -5 190 -8 190 -4
0 -9 7 -12 14 -4 11 -1 13 11 10 15 -5 15 -4 -1 9 -18 15 -18 16 0 26 10 6 13
11 6 11 -7 0 -10 9 -7 23 5 24 5 268 -1 777 -2 173 -4 435 -6 583 -1 147 -6
267 -11 267 -4 0 -8 -46 -9 -102z m8 -1500 c-3 -8 -6 -5 -6 6 -1 11 2 17 5 13
3 -3 4 -12 1 -19z m7 -43 c3 -8 1 -15 -4 -15 -6 0 -10 7 -10 15 0 8 2 15 4 15
2 0 6 -7 10 -15z m3 -187 c-3 -7 -5 -2 -5 12 0 14 2 19 5 13 2 -7 2 -19 0 -25z
m-2 -123 c0 -14 -3 -25 -7 -25 -5 0 -7 13 -6 30 3 34 11 31 13 -5z m8 -65 c-3
-11 -9 -20 -14 -20 -7 0 -7 18 0 48 1 2 5 1 10 -2 5 -3 7 -15 4 -26z"/>
<path d="M2665 2730 c-16 -7 -17 -9 -3 -9 9 -1 20 4 23 9 7 11 7 11 -20 0z"/>
<path d="M2708 2733 c7 -3 16 -2 19 1 4 3 -2 6 -13 5 -11 0 -14 -3 -6 -6z"/>
<path d="M728 2688 c-2 -7 -4 -37 -3 -67 2 -71 16 -81 117 -81 l78 0 -5 -52
c-3 -29 -9 -88 -14 -130 l-7 -78 60 -1 c46 -1 55 -3 36 -9 -18 -6 -8 -8 39 -9
134 -2 44 -11 -254 -26 -66 -4 -125 -8 -131 -10 -8 -2 -12 -33 -12 -84 -1
-118 -11 -113 237 -110 113 1 523 2 911 2 799 -2 730 -2 730 9 0 5 48 9 108 8
59 -1 123 3 142 9 19 6 54 11 77 11 43 0 62 19 21 21 -27 1 -48 4 -77 14 -15
4 -29 1 -41 -10 -12 -11 -20 -13 -25 -5 -4 7 -44 8 -126 4 -86 -5 -119 -4
-119 4 0 9 -26 10 -90 5 -69 -5 -90 -3 -90 7 0 9 -10 10 -37 5 -21 -5 -48 -7
-60 -7 -12 1 -25 -4 -29 -10 -5 -8 -2 -9 9 -5 9 3 19 2 22 -4 9 -13 -167 -4
-192 10 -17 10 -17 10 0 11 9 0 17 5 17 11 0 5 -4 8 -8 5 -5 -3 -39 -8 -77
-11 -37 -4 -75 -10 -85 -13 -23 -9 -290 8 -290 18 0 10 139 9 166 -1 13 -4 31
-3 45 5 14 7 59 11 109 11 47 -1 103 4 125 10 37 11 165 12 182 2 5 -2 34 -1
66 2 31 4 57 4 57 1 0 -3 17 -6 38 -7 32 -1 34 0 12 7 -14 4 -19 8 -12 9 7 1
10 6 7 11 -3 6 1 10 10 10 10 0 13 -5 9 -12 -5 -8 -1 -7 10 2 18 14 118 22
110 8 -3 -4 4 -7 13 -7 10 0 41 -1 68 -4 28 -2 60 0 70 4 14 6 5 8 -30 9 -44
0 -89 4 -105 10 -15 6 53 18 101 19 37 1 61 6 69 16 11 13 10 14 -2 10 -9 -4
-22 0 -30 8 -10 11 -20 12 -38 4 -39 -16 -54 -17 -62 -4 -5 8 -8 4 -8 -9 0
-16 -8 -23 -27 -27 -16 -3 -39 -8 -53 -11 -13 -3 -27 -1 -30 4 -3 6 -18 11
-33 12 -34 3 -35 15 -2 17 47 3 55 4 55 11 0 4 -47 11 -104 16 -57 5 -102 6
-100 3 8 -13 -24 -17 -36 -6 -8 7 -11 8 -7 1 4 -7 -5 -11 -23 -12 -17 0 -30 3
-30 8 0 14 -28 19 -60 10 -19 -5 -28 -5 -25 1 4 5 2 9 -4 9 -5 0 -11 -5 -13
-12 -3 -7 -9 -8 -19 -3 -8 5 -45 10 -84 10 l-70 0 -3 38 c-3 37 -3 37 -50 39
l-47 1 45 6 45 6 3 93 3 92 254 0 c140 0 255 -3 256 -7 1 -5 2 -21 3 -38 0
-16 4 -29 9 -27 4 1 52 2 108 2 l101 0 -4 33 -3 32 80 3 c96 3 115 18 115 89
0 24 -3 42 -8 39 -4 -2 -39 -7 -77 -11 -39 -4 -74 -10 -79 -13 -5 -3 -6 -1 -3
5 3 5 0 10 -8 10 -8 0 -14 -3 -13 -6 3 -31 -4 -40 -29 -37 -16 2 -54 4 -85 5
-69 1 -73 24 -5 29 23 2 46 8 52 14 7 7 7 9 0 5 -10 -5 -48 -9 -230 -23 -38
-2 -91 -7 -116 -9 -253 -21 -482 -25 -694 -11 -201 13 -227 15 -420 32 -127
11 -298 32 -326 40 -9 2 -19 -1 -21 -8z m913 -173 c1 -33 1 -233 0 -242 -1 -5
-117 -8 -259 -8 l-257 0 0 110 c0 61 1 122 3 138 l4 27 254 0 254 0 1 -25z
m492 -272 c-7 -2 -19 -2 -25 0 -7 3 -2 5 12 5 14 0 19 -2 13 -5z"/>
<path d="M2558 2663 c6 -2 18 -2 25 0 6 3 1 5 -13 5 -14 0 -19 -2 -12 -5z"/>
<path d="M2543 2448 c2 -7 9 -13 15 -12 7 1 21 2 33 3 31 2 12 21 -22 21 -20
0 -29 -4 -26 -12z"/>
<path d="M2390 2397 c0 -33 0 -33 48 -31 26 1 75 2 109 3 55 1 62 3 60 21 -1
22 -23 25 -139 21 -34 -1 -58 3 -58 9 0 5 -4 10 -10 10 -5 0 -10 -15 -10 -33z"/>
<path d="M2418 2352 c-25 -3 -28 -7 -28 -41 l0 -38 53 3 c28 1 80 2 115 3 39
1 61 5 57 11 -3 6 -16 10 -28 11 -20 1 -19 2 4 10 19 7 25 15 22 28 -4 16 -15
18 -86 17 -45 0 -94 -2 -109 -4z"/>
<path d="M2390 2142 c0 -5 23 -9 50 -11 28 -1 50 2 50 7 0 5 -22 10 -50 11
-27 0 -50 -3 -50 -7z"/>
<path d="M2348 2123 c6 -2 18 -2 25 0 6 3 1 5 -13 5 -14 0 -19 -2 -12 -5z"/>
<path d="M947 2004 c-6 -6 -28 -10 -78 -13 -8 -1 -24 -8 -35 -16 -18 -14 -17
-15 16 -10 30 5 33 4 18 -7 -10 -7 -24 -30 -33 -50 -8 -21 -20 -38 -25 -38 -5
0 -6 -7 -3 -17 4 -11 3 -14 -5 -9 -19 11 -14 -9 8 -37 27 -34 26 -56 -1 -31
-22 19 -22 19 -9 -2 7 -12 22 -26 32 -33 24 -15 98 -23 98 -10 0 5 17 8 38 5
20 -3 48 -5 62 -5 20 -1 22 -3 10 -11 -11 -7 4 -10 50 -9 151 2 146 3 142 -36
-6 -52 -18 -57 -135 -53 -71 2 -108 -1 -116 -9 -8 -9 -5 -13 12 -16 18 -4 17
-5 -6 -6 -16 0 -36 -5 -45 -10 -9 -5 -31 -11 -49 -14 -17 -3 -37 -8 -43 -12
-16 -10 -2 -25 23 -24 20 1 20 2 -3 9 -15 5 22 8 95 7 119 -1 119 -1 35 -7
-47 -3 -80 -8 -75 -9 6 -2 89 -4 185 -6 261 -5 312 19 312 144 0 121 -37 142
-266 147 -162 4 -186 10 -186 45 0 40 25 49 144 49 112 0 113 0 125 27 10 22
10 25 -2 15 -12 -10 -13 -8 -10 12 4 19 -1 25 -24 33 -32 11 -246 17 -256 7z
m106 -411 c-7 -2 -19 -2 -25 0 -7 3 -2 5 12 5 14 0 19 -2 13 -5z m106 -47 c-9
-9 -59 -15 -63 -7 -3 4 12 8 32 9 20 2 34 1 31 -2z"/>
<path d="M2073 1993 c-4 -9 -2 -18 5 -21 6 -2 8 -10 5 -19 -5 -14 -7 -78 -4
-139 1 -8 5 -13 10 -9 9 5 8 -16 -4 -75 -4 -19 -3 -21 5 -10 12 18 12 7 1 -42
-5 -21 -5 -36 -1 -33 5 3 3 -11 -3 -30 -6 -19 -8 -37 -5 -40 2 -3 38 -8 79
-11 41 -3 80 -7 87 -9 14 -5 14 -4 17 85 1 36 3 70 4 75 0 6 42 9 103 9 57 -1
111 3 121 8 11 6 17 5 17 -2 0 -6 5 -8 10 -5 10 6 14 -13 11 -47 -1 -10 3 -18
10 -18 9 0 9 -3 0 -14 -8 -9 -8 -16 -2 -20 6 -4 5 -18 -3 -39 -22 -52 -15 -57
90 -57 90 0 94 1 95 23 1 12 0 27 -1 32 -1 6 -3 33 -4 62 0 29 -7 58 -14 65
-6 6 -12 17 -12 23 0 5 5 2 11 -7 14 -26 32 -23 19 2 -6 11 -8 25 -5 30 3 5 0
7 -7 5 -14 -6 -21 35 -7 45 5 4 17 89 21 150 2 29 -4 31 -94 25 -51 -3 -94 -8
-97 -10 -2 -3 -4 -38 -3 -80 l1 -74 -117 -3 c-139 -4 -165 3 -151 39 7 20 6
24 -4 20 -10 -4 -13 3 -12 24 1 17 -2 32 -7 35 -4 3 -2 15 6 26 27 38 11 47
-80 47 -70 0 -86 -3 -91 -16z m25 -78 c-3 -3 -9 2 -12 12 -6 14 -5 15 5 6 7
-7 10 -15 7 -18z m6 -81 c3 -8 2 -12 -4 -9 -6 3 -10 10 -10 16 0 14 7 11 14
-7z"/>
<path d="M1549 1980 c-88 -25 -99 -51 -99 -232 0 -173 10 -198 87 -222 50 -15
295 -18 309 -3 4 4 -3 7 -16 7 -31 0 -17 13 18 17 91 9 132 17 132 24 0 5 -7
6 -15 3 -8 -4 -15 -2 -15 4 0 6 -8 8 -18 5 -9 -2 -36 0 -59 5 -27 6 -45 6 -52
-1 -7 -7 -20 -6 -40 3 -30 12 -45 11 -85 -6 -14 -5 -17 -4 -12 4 4 8 2 10 -8
6 -9 -4 -20 5 -30 24 -8 16 -14 31 -13 33 1 2 -4 -3 -12 -11 -12 -13 -13 -13
-8 1 3 9 0 22 -6 29 -9 10 -9 11 3 5 13 -8 13 -6 1 8 -14 18 -9 104 9 137 6
10 10 27 10 37 0 23 52 63 88 68 25 4 25 3 -5 -11 -18 -8 -33 -15 -33 -17 0
-1 63 -2 140 -2 94 -1 139 3 136 10 -2 5 -9 9 -15 7 -7 -1 -10 2 -7 6 3 5 17
8 30 7 15 -2 24 2 23 8 -1 7 4 11 11 9 6 -1 12 2 12 8 0 6 -27 10 -62 10 -77
0 -72 9 6 11 35 1 52 5 44 11 -16 10 -412 9 -449 -2z"/>
<path d="M1631 1803 c-1 -6 -4 -20 -7 -30 -5 -17 -5 -17 6 0 6 10 9 23 6 30
-3 9 -5 9 -5 0z"/>
<path d="M905 1610 c3 -5 12 -7 20 -3 21 7 19 13 -6 13 -11 0 -18 -4 -14 -10z"/>
<path d="M1968 1542 c-32 -2 -58 -8 -58 -13 0 -12 109 -9 116 3 8 13 6 13 -58
10z"/>
<path d="M1860 1520 c0 -5 7 -7 15 -4 8 4 15 8 15 10 0 2 -7 4 -15 4 -8 0 -15
-4 -15 -10z"/>
<path d="M833 1492 c-93 -3 -87 5 -85 -99 1 -70 6 -116 15 -130 5 -8 4 -13 -2
-13 -6 0 -9 -10 -8 -22 2 -40 -15 -171 -29 -218 -8 -25 -14 -46 -14 -47 0 -2
49 -3 108 -3 l109 0 -3 38 c-2 20 -5 51 -9 68 -6 32 17 70 35 59 18 -11 122
-7 130 5 5 9 13 6 29 -11 11 -12 21 -27 21 -33 0 -5 3 -6 6 -3 4 4 1 15 -7 24
-13 16 -12 17 4 4 9 -7 17 -20 17 -28 0 -8 5 -11 11 -7 7 4 10 1 7 -7 -3 -8 1
-20 9 -27 7 -7 13 -21 13 -31 0 -10 8 -26 19 -35 15 -14 37 -16 131 -14 l112
3 -70 80 c-53 61 -66 81 -54 84 10 2 19 7 22 11 3 4 19 13 35 21 17 9 29 22
29 32 -1 9 2 14 7 11 5 -3 9 -2 10 3 0 4 3 26 5 48 l5 39 -26 -29 c-25 -29
-25 -29 -17 -5 5 14 10 58 10 97 0 68 -2 74 -29 97 -16 14 -48 28 -72 31 -47
7 -349 12 -474 7z m93 -90 c-3 -5 21 -9 52 -10 31 0 57 -1 57 -3 0 -1 39 -2
86 -3 108 -1 121 -11 118 -93 -3 -56 -23 -93 -50 -93 -6 0 -1 9 12 20 27 22
16 26 -20 6 -17 -9 -36 -11 -69 -4 -26 4 -76 7 -113 6 -61 -3 -69 -1 -88 22
-17 20 -20 37 -19 87 1 35 6 57 10 50 5 -8 8 -7 8 6 0 9 5 17 11 17 5 0 8 -4
5 -8z m494 -166 c0 -2 -6 -9 -14 -15 -11 -9 -16 -9 -22 0 -4 7 -3 9 4 5 6 -3
13 -2 17 4 6 10 15 14 15 6z"/>
<path d="M909 1368 c-5 -18 -6 -38 -1 -34 7 8 12 36 6 36 -2 0 -4 -1 -5 -2z"/>
<path d="M1642 1455 c-5 -7 -11 -87 -7 -96 0 0 20 -3 44 -6 36 -4 47 -2 58 13
12 17 13 17 13 0 0 -10 5 -16 13 -13 7 3 12 -4 12 -18 0 -13 -3 -21 -7 -18 -5
2 -8 -2 -9 -9 0 -7 -2 -21 -4 -31 -2 -12 1 -17 9 -14 9 4 11 -11 9 -57 -3 -66
-4 -68 -23 -138 -14 -46 -14 -46 -58 -46 -24 0 -49 -5 -55 -11 -8 -8 -8 -11 1
-11 7 0 12 -6 12 -14 0 -8 10 -18 23 -22 l22 -8 -25 -7 c-24 -7 -24 -7 -2 -8
12 -1 22 -5 22 -9 0 -13 11 -14 198 -19 160 -4 172 -3 173 14 1 10 2 25 3 33
1 8 -1 26 -4 39 -5 21 -12 24 -55 25 l-50 1 -2 65 c-2 73 -6 96 -16 106 -4 4
-3 12 2 18 6 7 11 38 12 69 2 57 4 59 40 78 21 10 45 19 54 19 10 0 15 10 15
29 0 28 -2 29 -37 27 -21 -2 -49 1 -63 5 -22 7 -21 8 10 7 65 0 90 2 90 10 0
11 -411 9 -418 -3z"/>
<path d="M2451 1429 l34 -19 -42 3 c-42 4 -61 -8 -76 -46 -7 -19 -7 -19 81
-17 54 1 62 -1 63 -17 0 -10 0 -74 0 -143 0 -95 -4 -127 -15 -135 -7 -6 -47
-12 -87 -13 -40 -2 -76 -5 -79 -8 -10 -11 -4 -39 10 -46 10 -4 6 -7 -11 -7
-15 -1 -40 -8 -55 -16 -28 -14 -27 -15 51 -17 230 -5 290 -2 327 16 20 10 39
24 42 32 3 8 2 13 -2 10 -4 -2 -8 14 -9 37 -1 23 -4 76 -6 117 -2 41 0 82 4
90 4 8 10 42 14 75 3 32 12 73 20 91 l13 32 -156 0 -155 -1 34 -18z m222 -354
c4 -8 3 -16 -1 -19 -4 -3 -9 4 -9 15 -2 23 3 25 10 4z m-283 -79 c0 -2 -7 -6
-15 -10 -8 -3 -15 -1 -15 4 0 6 7 10 15 10 8 0 15 -2 15 -4z"/>
<path d="M2275 1010 c3 -5 8 -10 11 -10 2 0 4 5 4 10 0 6 -5 10 -11 10 -5 0
-7 -4 -4 -10z"/>
<path d="M735 881 c4 -11 3 -12 -10 -1 -13 10 -15 9 -15 -8 0 -11 -3 -28 -7
-37 -5 -15 -3 -16 18 -5 24 13 24 13 5 -9 -11 -11 -16 -24 -13 -27 3 -4 -1
-13 -9 -21 -8 -9 -12 -18 -9 -21 3 -4 11 0 16 8 8 11 8 8 3 -10 -4 -14 -7 -35
-6 -48 1 -13 -2 -21 -6 -18 -5 3 -9 -1 -9 -9 0 -8 5 -11 11 -8 6 4 5 -1 -3
-10 -7 -9 -11 -17 -7 -17 3 0 -1 -16 -9 -36 -8 -20 -15 -47 -15 -61 0 -13 -4
-33 -10 -43 -5 -10 -13 -36 -16 -57 -3 -21 -10 -42 -15 -47 -5 -6 -9 -14 -9
-18 0 -4 77 -8 170 -8 l170 0 0 236 0 236 28 -6 c15 -4 36 -9 47 -11 11 -3 2
4 -20 15 -35 17 -36 19 -10 13 17 -3 122 -35 234 -70 112 -35 206 -61 208 -59
12 12 -61 40 -260 101 -213 65 -220 67 -337 68 -99 2 -119 0 -115 -12z"/>
<path d="M2525 890 c-1 -3 -3 -104 -3 -225 -1 -282 1 -258 -19 -247 -10 6 -49
19 -88 30 -38 11 -153 46 -255 77 -102 32 -192 58 -200 60 -8 1 -9 0 -2 -2 7
-3 10 -9 7 -14 -4 -5 0 -9 8 -9 7 0 54 -14 103 -30 61 -21 76 -29 49 -25 -35
4 -37 3 -15 -6 14 -6 54 -19 90 -29 36 -11 117 -37 180 -60 l115 -40 178 1
c163 1 177 2 165 17 -10 12 -10 14 0 8 6 -4 12 -2 12 3 0 6 -4 11 -9 11 -5 0
-7 10 -4 23 4 22 4 22 -11 2 -16 -18 -16 -18 -10 14 5 22 4 32 -3 28 -6 -4 -9
4 -7 21 4 33 -5 64 -16 57 -5 -3 -7 10 -4 30 3 29 2 34 -13 29 -11 -4 -14 -3
-7 3 9 6 8 41 -2 137 -7 71 -15 130 -17 132 -6 6 -218 10 -222 4z"/>
<path d="M1285 745 c55 -19 107 -34 115 -33 8 0 -30 15 -85 33 -55 19 -107 33
-115 33 -8 0 30 -15 85 -33z"/>
<path d="M1500 712 c0 -5 27 -16 60 -25 69 -19 70 -20 70 -9 0 4 -26 15 -58
25 -66 19 -72 20 -72 9z"/>
<path d="M1435 700 c27 -12 43 -12 25 0 -8 5 -22 9 -30 9 -10 0 -8 -3 5 -9z"/>
<path d="M1648 673 c7 -3 16 -2 19 1 4 3 -2 6 -13 5 -11 0 -14 -3 -6 -6z"/>
<path d="M1570 660 c0 -8 60 -23 67 -17 1 2 -13 8 -32 14 -19 6 -35 8 -35 3z"/>
<path d="M1745 640 c-3 -6 1 -7 9 -4 18 7 21 14 7 14 -6 0 -13 -4 -16 -10z"/>
<path d="M1665 630 c27 -12 43 -12 25 0 -8 5 -22 9 -30 9 -10 0 -8 -3 5 -9z"/>
<path d="M1788 593 c7 -3 16 -2 19 1 4 3 -2 6 -13 5 -11 0 -14 -3 -6 -6z"/>
<path d="M583 193 c9 -2 25 -2 35 0 9 3 1 5 -18 5 -19 0 -27 -2 -17 -5z"/>
<path d="M483 127 c22 -7 35 -15 31 -19 -4 -5 -5 -8 -2 -8 3 0 12 8 19 17 8
10 9 14 2 10 -6 -4 -14 -3 -18 3 -3 5 -21 10 -38 9 l-32 -1 38 -11z"/>
<path d="M575 120 c-3 -5 -1 -10 4 -10 6 0 11 5 11 10 0 6 -2 10 -4 10 -3 0
-8 -4 -11 -10z"/>
<path d="M670 122 c0 -5 7 -9 15 -9 8 0 12 4 9 9 -7 10 -24 10 -24 0z"/>
<path d="M720 120 c-13 -8 -12 -10 3 -10 9 0 17 5 17 10 0 12 -1 12 -20 0z"/>
<path d="M439 81 c12 -8 51 -4 51 5 0 2 -15 4 -32 4 -23 0 -29 -3 -19 -9z"/>
<path d="M543 83 c9 -2 23 -2 30 0 6 3 -1 5 -18 5 -16 0 -22 -2 -12 -5z"/>
<path d="M935 80 c3 -5 8 -10 11 -10 2 0 4 5 4 10 0 6 -5 10 -11 10 -5 0 -7
-4 -4 -10z"/>
<path d="M838 13 c7 -3 16 -2 19 1 4 3 -2 6 -13 5 -11 0 -14 -3 -6 -6z"/>
</g>
</svg>
